<svg xmlns="http://www.w3.org/2000/svg" version="1.1" xmlns:xlink="http://www.w3.org/1999/xlink" xmlns:svgjs="http://svgjs.dev/svgjs" width="1500" height="1500" viewBox="0 0 1500 1500"><rect width="1500" height="1500" fill="#ffffff"></rect><g transform="matrix(0.6666666666666666,0,0,0.6666666666666666,250.00007343750008,187.66666666666674)"><svg viewBox="0 0 320 360" data-background-color="#575c5b" preserveAspectRatio="xMidYMid meet" height="1687" width="1500" xmlns="http://www.w3.org/2000/svg" xmlns:xlink="http://www.w3.org/1999/xlink"><g id="tight-bounds" transform="matrix(1,0,0,1,0.000023499999997511622,0)"><svg viewBox="0 0 320 360" height="360" width="320"><g><svg></svg></g><g><svg viewBox="0 0 320 360" height="360" width="320"><g><path transform="translate(-74.99272,-51.79039) scale(4.65793,4.65793)" d="M20.6 59.9l0.8 1-0.4-1.3c-0.1-0.6-0.8 0.1-0.4 0.3M21.5 59.3c0.3 0.5 0.6 1 0.6 1.5 0 0.7 0.6 1 1.1 1.2-0.7-0.8-1.1-3-1.7-2.7M59.9 16.9c1.7 0 3.3-0.2 5.1 0.2 4.4 1.1 8.1 3.3 10.6 6.4l7 11.2c0.3 2.8 0.9 5.9 0.8 9.3 0.7 0 0.6-1 1.4-1.2-0.8 2-1.2 4.5-1.4 7.4-0.5-1.6 0-4 0.1-5.3-0.7 1.1-1.1 0.3-1.1-0.2 0.1-0.8-0.3-0.7-0.6-1-1.1-1-1.8-2.1-2.6-3.8 0.5-1.3 0.6-3.2-1-4.2-0.5-0.3-1.1-0.8-1.4-1.6-0.4-1.1-1.1-2.4-0.9-4.1 0.1-0.5-1.5 1.1-2.4 0.4-3.9-2.7-7.8-5.8-12.5-8.4-2.5 0-4.3-0.9-5.2-2-0.8-1-0.2-2.3 1-2.4 0.7 0 1.5-0.2 2.1 0.2 0.1-0.4 0.5-0.9 1-0.9M50 14.6l0.2 0.1c1 0.2 1.5 1.6 2.6 1.1 0 0.7 0.1 1.4-0.1 1.9-0.3 0.8-1.2 0.8-1.9 0.8-6.7-0.4-10.6 2.4-14.7 4.8-1.1 0.7-2.3 1.2-3.2 2.1-4.3 4-9 7.7-10.1 15.1l-0.9 8.2c-0.1 0.9-1.1 1.8-0.9 2.9l0.7 4.9c-0.7-0.7-1.1 0.2-0.9 0.6 0.1 0.3 0.5 1.3 1.1 0.4 0.8 1.5 1.6 4.4 2.7 5.7 3.4 4 7.8 7.6 11.4 11.2 0.9-0.2 1.6-0.2 1.8-0.8 0.3 0.6-0.3 1.2-0.8 1.3 1.6 1 3.4 1.9 5.8 2.1 3.1 0.2 6 0.7 8.7 1.4 1.4-0.4 2.8-0.6 4.3-0.7 0.5 0 0.8-0.8 1.4-1l0.1-1c0.6 0.9 0.5-0.3 0.1-0.9 0.7 0.6 0.9 1.1 1.2 1.5 0-0.3 0.8-1.4 0.8-0.1l0.2-1.3c0.3-0.2 0.4 1.1 0.7 0.2 0.3-0.9 0.9-0.2 1.5-0.5-0.2 0.4-0.1 1.2 0.6 0.7l0.8-0.7c0.5 1.2 1.3 0.7 1.7 0.5 4.4-2.8 8.8-6.1 13-9.4l-0.1 1.3 0.5-1.6c0.5 0.5 0.9 0.1 1.1-0.2 0.6-1 1.4-2 2.7-2.9-1.6 4.3-3.5 7.7-5.9 10.5l-1 1.2c0 0.7-0.2 1.6-1 1.7-0.4 0.1-1.2-0.2-1.8 0.4-0.3 0.4 0.7 1.2-0.1 0.6-0.7-0.5-1.4 0-2.2 0.2-0.6 0.2 0.4 0.8 0.6 1.2 0.2 0.4 0.4 0.8 0.3 1.3l-1.1-1.2c-1.3 0.7-2.1 2-3.2 3-0.5 0.4-0.3 1.1-0.3 1.7-0.7 0-1.5-0.2-1.9 0.2-0.3 0.4-0.2 1-0.2 1.6-1-0.1-1.1-1.6-2-1.3-0.9 0.2-1.9 0.3-2.7 0.8 0.6 1.2-1 0.5-0.8 0.7-1.5-0.9-2.8-1.6-4.4-1-3.4-1.1-7.6-0.6-10.7-0.2 0-0.5 0.1-1-0.1-1.1-0.2 0.5-0.8 0.3-0.7 0.3-1.9-1.3-3.8-2.1-5.8-3.2-1.8 0.2-3.5-0.7-4-1.2-1.4-1.3-3-0.6-4.3-0.9-2.8-0.7-3.8-3.6-4.1-5.6-0.2-1-1-1.4-1.3-1.3-1.3-4.2-3.3-8-4.9-11.9-0.4-1-0.3-2-0.3-3.1 0.5 0.2 1 0.1 0.9-0.6-0.5-3.3-1.7-5.8-3-8.2 0.7-3.4 0.8-7.4 2.4-10.4 1.4-2.7 4-4.1 5.8-6.4 0.6-0.8 0.6-1.9 1.2-2.6 2-2 4-4.1 6.2-5.9 1-0.8 2.2 0 3.7-0.3 0.5-1.8 2.5-3.4 4.4-2.9 0.8 0.2 2.4-1.9 2.9-2.1 0.8-0.3 0.4 0.8 0.4 1.5 1.9-1.5 4.5-2.3 6.9-3.2" fill="#000000" fill-rule="nonzero" stroke="none" stroke-width="1" stroke-linecap="butt" stroke-linejoin="miter" stroke-miterlimit="10" stroke-dasharray="" stroke-dashoffset="0" font-family="none" font-weight="none" font-size="none" text-anchor="none" style="mix-blend-mode: normal" data-fill-palette-color="tertiary"></path></g><g transform="matrix(1,0,0,1,64,128.40741987096774)"><svg viewBox="0 0 192 103.18516025806451" height="103.18516025806451" width="192"><g><svg viewBox="0 0 192 103.18516025806451" height="103.18516025806451" width="192"><g><svg viewBox="0 0 192 103.18516025806451" height="103.18516025806451" width="192"><g transform="matrix(1,0,0,1,0,66.02386993548387)"><svg viewBox="0 0 192 37.16129032258064" height="37.16129032258064" width="192"><g id="textblocktransform"><svg viewBox="0 0 192 37.16129032258064" height="37.16129032258064" width="192" id="textblock"><g><svg viewBox="0 0 192 37.16129032258064" height="37.16129032258064" width="192"><g transform="matrix(1,0,0,1,0,0)"><svg width="192" viewBox="3.75 -35.5 185.99 36" height="37.16129032258064" data-palette-color="#000000"><path d="M16.55 0.5L16.55 0.5Q13.55 0.5 11.55-0.58 9.55-1.65 8.35-3.25L8.35-3.25 8.35-1.15Q8.35-0.65 8.03-0.33 7.7 0 7.2 0L7.2 0 4.9 0Q4.4 0 4.08-0.33 3.75-0.65 3.75-1.15L3.75-1.15 3.75-34.35Q3.75-34.85 4.08-35.18 4.4-35.5 4.9-35.5L4.9-35.5 7.35-35.5Q7.85-35.5 8.15-35.18 8.45-34.85 8.45-34.35L8.45-34.35 8.45-22.85Q9.7-24.4 11.68-25.45 13.65-26.5 16.55-26.5L16.55-26.5Q19.35-26.5 21.33-25.53 23.3-24.55 24.58-22.85 25.85-21.15 26.5-19 27.15-16.85 27.25-14.5L27.25-14.5Q27.3-13.7 27.3-13 27.3-12.3 27.25-11.5L27.25-11.5Q27.15-9.1 26.5-6.95 25.85-4.8 24.58-3.13 23.3-1.45 21.33-0.48 19.35 0.5 16.55 0.5ZM15.5-3.55L15.5-3.55Q18.1-3.55 19.58-4.67 21.05-5.8 21.7-7.63 22.35-9.45 22.45-11.55L22.45-11.55Q22.5-13 22.45-14.45L22.45-14.45Q22.35-16.55 21.7-18.38 21.05-20.2 19.58-21.33 18.1-22.45 15.5-22.45L15.5-22.45Q13.15-22.45 11.6-21.35 10.05-20.25 9.28-18.55 8.5-16.85 8.45-15.1L8.45-15.1Q8.4-14.3 8.4-13.18 8.4-12.05 8.45-11.25L8.45-11.25Q8.55-9.4 9.28-7.63 10-5.85 11.53-4.7 13.05-3.55 15.5-3.55ZM40.7 0.5L40.7 0.5Q38.2 0.5 36.15-0.5 34.1-1.5 32.85-3.2 31.6-4.9 31.6-7.05L31.6-7.05Q31.6-10.5 34.4-12.55 37.2-14.6 41.7-15.25L41.7-15.25 49.15-16.3 49.15-17.75Q49.15-20.15 47.77-21.5 46.4-22.85 43.3-22.85L43.3-22.85Q41.1-22.85 39.7-21.95 38.3-21.05 37.75-19.65L37.75-19.65Q37.45-18.9 36.7-18.9L36.7-18.9 34.45-18.9Q33.9-18.9 33.62-19.23 33.35-19.55 33.35-20L33.35-20Q33.35-20.75 33.92-21.85 34.5-22.95 35.7-24 36.9-25.05 38.77-25.78 40.65-26.5 43.35-26.5L43.35-26.5Q46.35-26.5 48.4-25.73 50.45-24.95 51.62-23.65 52.8-22.35 53.32-20.7 53.85-19.05 53.85-17.35L53.85-17.35 53.85-1.15Q53.85-0.65 53.52-0.33 53.2 0 52.7 0L52.7 0 50.4 0Q49.85 0 49.55-0.33 49.25-0.65 49.25-1.15L49.25-1.15 49.25-3.3Q48.6-2.4 47.5-1.53 46.4-0.65 44.75-0.08 43.1 0.5 40.7 0.5ZM41.75-3.25L41.75-3.25Q43.8-3.25 45.5-4.13 47.2-5 48.17-6.85 49.15-8.7 49.15-11.5L49.15-11.5 49.15-12.9 43.35-12.05Q39.8-11.55 38-10.38 36.2-9.2 36.2-7.4L36.2-7.4Q36.2-6 37.02-5.08 37.85-4.15 39.12-3.7 40.4-3.25 41.75-3.25ZM74.64 0L71.19 0Q68.39 0 66.64-1.07 64.89-2.15 64.09-4.13 63.3-6.1 63.3-8.8L63.3-8.8 63.3-22 59.39-22Q58.89-22 58.57-22.33 58.24-22.65 58.24-23.15L58.24-23.15 58.24-24.85Q58.24-25.35 58.57-25.68 58.89-26 59.39-26L59.39-26 63.3-26 63.3-34.35Q63.3-34.85 63.62-35.18 63.95-35.5 64.44-35.5L64.44-35.5 66.8-35.5Q67.3-35.5 67.62-35.18 67.94-34.85 67.94-34.35L67.94-34.35 67.94-26 74.14-26Q74.69-26 75-25.68 75.3-25.35 75.3-24.85L75.3-24.85 75.3-23.15Q75.3-22.65 75-22.33 74.69-22 74.14-22L74.14-22 67.94-22 67.94-9.15Q67.94-6.8 68.75-5.45 69.55-4.1 71.59-4.1L71.59-4.1 74.64-4.1Q75.14-4.1 75.47-3.78 75.8-3.45 75.8-2.95L75.8-2.95 75.8-1.15Q75.8-0.65 75.47-0.33 75.14 0 74.64 0L74.64 0ZM93.44 0.5L93.44 0.5Q90.44 0.5 88.44-0.58 86.44-1.65 85.24-3.25L85.24-3.25 85.24-1.15Q85.24-0.65 84.92-0.33 84.59 0 84.09 0L84.09 0 81.79 0Q81.29 0 80.97-0.33 80.64-0.65 80.64-1.15L80.64-1.15 80.64-34.35Q80.64-34.85 80.97-35.18 81.29-35.5 81.79-35.5L81.79-35.5 84.24-35.5Q84.74-35.5 85.04-35.18 85.34-34.85 85.34-34.35L85.34-34.35 85.34-22.85Q86.59-24.4 88.57-25.45 90.54-26.5 93.44-26.5L93.44-26.5Q96.24-26.5 98.22-25.53 100.19-24.55 101.47-22.85 102.74-21.15 103.39-19 104.04-16.85 104.14-14.5L104.14-14.5Q104.19-13.7 104.19-13 104.19-12.3 104.14-11.5L104.14-11.5Q104.04-9.1 103.39-6.95 102.74-4.8 101.47-3.13 100.19-1.45 98.22-0.48 96.24 0.5 93.44 0.5ZM92.39-3.55L92.39-3.55Q94.99-3.55 96.47-4.67 97.94-5.8 98.59-7.63 99.24-9.45 99.34-11.55L99.34-11.55Q99.39-13 99.34-14.45L99.34-14.45Q99.24-16.55 98.59-18.38 97.94-20.2 96.47-21.33 94.99-22.45 92.39-22.45L92.39-22.45Q90.04-22.45 88.49-21.35 86.94-20.25 86.17-18.55 85.39-16.85 85.34-15.1L85.34-15.1Q85.29-14.3 85.29-13.18 85.29-12.05 85.34-11.25L85.34-11.25Q85.44-9.4 86.17-7.63 86.89-5.85 88.42-4.7 89.94-3.55 92.39-3.55ZM117.59 0.5L117.59 0.5Q115.09 0.5 113.04-0.5 110.99-1.5 109.74-3.2 108.49-4.9 108.49-7.05L108.49-7.05Q108.49-10.5 111.29-12.55 114.09-14.6 118.59-15.25L118.59-15.25 126.04-16.3 126.04-17.75Q126.04-20.15 124.67-21.5 123.29-22.85 120.19-22.85L120.19-22.85Q117.99-22.85 116.59-21.95 115.19-21.05 114.64-19.65L114.64-19.65Q114.34-18.9 113.59-18.9L113.59-18.9 111.34-18.9Q110.79-18.9 110.52-19.23 110.24-19.55 110.24-20L110.24-20Q110.24-20.75 110.81-21.85 111.39-22.95 112.59-24 113.79-25.05 115.67-25.78 117.54-26.5 120.24-26.5L120.24-26.5Q123.24-26.5 125.29-25.73 127.34-24.95 128.51-23.65 129.69-22.35 130.22-20.7 130.74-19.05 130.74-17.35L130.74-17.35 130.74-1.15Q130.74-0.65 130.41-0.33 130.09 0 129.59 0L129.59 0 127.29 0Q126.74 0 126.44-0.33 126.14-0.65 126.14-1.15L126.14-1.15 126.14-3.3Q125.49-2.4 124.39-1.53 123.29-0.65 121.64-0.08 119.99 0.5 117.59 0.5ZM118.64-3.25L118.64-3.25Q120.69-3.25 122.39-4.13 124.09-5 125.06-6.85 126.04-8.7 126.04-11.5L126.04-11.5 126.04-12.9 120.24-12.05Q116.69-11.55 114.89-10.38 113.09-9.2 113.09-7.4L113.09-7.4Q113.09-6 113.92-5.08 114.74-4.15 116.02-3.7 117.29-3.25 118.64-3.25ZM141.59 0L139.09 0Q138.59 0 138.26-0.33 137.94-0.65 137.94-1.15L137.94-1.15 137.94-24.85Q137.94-25.35 138.26-25.68 138.59-26 139.09-26L139.09-26 141.44-26Q141.94-26 142.26-25.68 142.59-25.35 142.59-24.85L142.59-24.85 142.59-22.65Q143.89-24.35 145.86-25.43 147.84-26.5 150.94-26.5L150.94-26.5Q154.19-26.5 156.46-25.08 158.74-23.65 159.91-21.13 161.09-18.6 161.09-15.25L161.09-15.25 161.09-1.15Q161.09-0.65 160.76-0.33 160.44 0 159.94 0L159.94 0 157.44 0Q156.94 0 156.61-0.33 156.29-0.65 156.29-1.15L156.29-1.15 156.29-15Q156.29-18.5 154.59-20.48 152.89-22.45 149.59-22.45L149.59-22.45Q146.49-22.45 144.61-20.48 142.74-18.5 142.74-15L142.74-15 142.74-1.15Q142.74-0.65 142.41-0.33 142.09 0 141.59 0L141.59 0ZM171.79 0L169.44 0Q168.94 0 168.61-0.33 168.29-0.65 168.29-1.15L168.29-1.15 168.29-34.35Q168.29-34.85 168.61-35.18 168.94-35.5 169.44-35.5L169.44-35.5 171.79-35.5Q172.29-35.5 172.61-35.18 172.94-34.85 172.94-34.35L172.94-34.35 172.94-16.95 182.79-25.15Q183.39-25.65 183.71-25.83 184.04-26 184.79-26L184.79-26 187.44-26Q187.89-26 188.19-25.7 188.49-25.4 188.49-24.95L188.49-24.95Q188.49-24.75 188.36-24.5 188.24-24.25 187.89-24L187.89-24 176.34-14.4 189.14-1.95Q189.74-1.45 189.74-1.05L189.74-1.05Q189.74-0.6 189.44-0.3 189.14 0 188.69 0L188.69 0 186.09 0Q185.34 0 184.99-0.18 184.64-0.35 184.09-0.85L184.09-0.85 172.94-11.5 172.94-1.15Q172.94-0.65 172.61-0.33 172.29 0 171.79 0L171.79 0Z" opacity="1" transform="matrix(1,0,0,1,0,0)" fill="#000000" class="wordmark-text-0" data-fill-palette-color="primary" id="text-0"></path></svg></g></svg></g></svg></g></svg></g><g transform="matrix(1,0,0,1,59.927889400921664,0)"><svg viewBox="0 0 72.14422119815667 60.60114580645161" height="60.60114580645161" width="72.14422119815667"><g><svg version="1.1" xmlns="http://www.w3.org/2000/svg" xmlns:xlink="http://www.w3.org/1999/xlink" x="0" y="0" viewBox="0 0 100 84" enable-background="new 0 0 100 84.819" xml:space="preserve" width="72.14422119815667" height="60.60114580645161" class="icon-icon-0" data-fill-palette-color="accent" id="icon-0"><g fill="#000000" data-fill-palette-color="accent"><rect x="82.729" y="34.821" fill="#000000" width="9.778" height="29.05" data-fill-palette-color="accent"></rect><rect x="67.423" y="34.821" fill="#000000" width="9.769" height="29.05" data-fill-palette-color="accent"></rect><rect x="21.493" y="34.821" fill="#000000" width="9.769" height="29.05" data-fill-palette-color="accent"></rect><rect x="6.184" y="34.821" fill="#000000" width="9.775" height="29.05" data-fill-palette-color="accent"></rect><path fill="#000000" d="M49.441 30.715h49.244L53.687 1.419c-1.929-1.188-2.888-1.382-4.246-1.414L49.244 0v0.006c-1.356 0.031-2.318 0.226-4.248 1.414L0 30.715h49.244H49.441z" data-fill-palette-color="accent"></path><path fill="#000000" d="M49.478 40.232c1.105-0.939 2.386-1.41 3.843-1.41 1.879 0 3.559 0.581 5.041 1.746v-5.164c-1.351-0.728-3.129-1.091-5.341-1.091-3.017 0-5.538 0.848-7.564 2.543-2.024 1.694-3.401 4.071-4.129 7.126h-2.521v3.711h1.945c-0.053 0.85-0.079 1.392-0.079 1.633 0 0.446 0.013 0.838 0.04 1.17h-1.906v3.772h2.422c0.608 3.056 1.853 5.409 3.732 7.058s4.308 2.467 7.286 2.467c2.516 0 4.554-0.474 6.114-1.426v-4.884c-1.693 1.192-3.475 1.789-5.341 1.789-2.964 0-4.943-1.668-5.936-5.004h8.496v-3.772H46.49c-0.026-0.425-0.04-0.814-0.04-1.17 0-0.304 0.026-0.85 0.08-1.633h9.052v-3.711h-8.456C47.588 42.42 48.372 41.172 49.478 40.232z" data-fill-palette-color="accent"></path><rect x="1.301" y="69.358" fill="#000000" width="98.699" height="15.461" data-fill-palette-color="accent"></rect></g></svg></g></svg></g><g></g></svg></g></svg></g></svg></g></svg></g><defs></defs></svg><rect width="320" height="360" fill="none" stroke="none" visibility="hidden"></rect></g></svg></g></svg>